0
SECTION
2
HEADER
9
$INSUNITS
70
4
9
$ACADVER
1
AC1014
9
$HANDSEED
5
FFFF
0
ENDSEC
0
SECTION
2
TABLES
0
TABLE
2
VPORT
5
8
100
AcDbSymbolTable
0
ENDTAB
0
TABLE
2
LTYPE
5
5
100
AcDbSymbolTable
0
LTYPE
5
14
100
AcDbSymbolTableRecord
100
AcDbLinetypeTableRecord
2
BYBLOCK
70
0
0
LTYPE
5
15
100
AcDbSymbolTableRecord
100
AcDbLinetypeTableRecord
2
BYLAYER
70
0
0
LTYPE
5
16
100
AcDbSymbolTableRecord
100
AcDbLinetypeTableRecord
2
DASHED
70
0
3
Dashed __ __ __ __ __ __ __ __ __ __ __ __ __ _
72
65
73
2
40
0.75
49
0.5
74
0
49
-0.25
74
0
0
ENDTAB
0
TABLE
2
LAYER
5
2
100
AcDbSymbolTable
70
2
0
LAYER
5
50
100
AcDbSymbolTableRecord
100
AcDbLayerTableRecord
2
0
70
0
62
7
6
CONTINUOUS
0
ENDTAB
0
TABLE
2
STYLE
5
3
100
AcDbSymbolTable
70
1
0
STYLE
5
11
100
AcDbSymbolTableRecord
100
AcDbTextStyleTableRecord
2
STANDARD
70
0
0
ENDTAB
0
TABLE
2
VIEW
5
6
100
AcDbSymbolTable
70
0
0
ENDTAB
0
TABLE
2
UCS
5
7
100
AcDbSymbolTable
70
0
0
ENDTAB
0
TABLE
2
APPID
5
9
100
AcDbSymbolTable
70
2
0
APPID
5
12
100
AcDbSymbolTableRecord
100
AcDbRegAppTableRecord
2
ACAD
70
0
0
ENDTAB
0
TABLE
2
DIMSTYLE
5
A
100
AcDbSymbolTable
70
1
0
ENDTAB
0
TABLE
2
BLOCK_RECORD
5
1
100
AcDbSymbolTable
70
1
0
BLOCK_RECORD
5
1F
100
AcDbSymbolTableRecord
100
AcDbBlockTableRecord
2
*MODEL_SPACE
0
BLOCK_RECORD
5
1B
100
AcDbSymbolTableRecord
100
AcDbBlockTableRecord
2
*PAPER_SPACE
0
ENDTAB
0
ENDSEC
0
SECTION
2
BLOCKS
0
BLOCK
5
20
100
AcDbEntity
100
AcDbBlockBegin
2
*MODEL_SPACE
0
ENDBLK
5
21
100
AcDbEntity
100
AcDbBlockEnd
0
BLOCK
5
1C
100
AcDbEntity
100
AcDbBlockBegin
2
*PAPER_SPACE
0
ENDBLK
5
1D
100
AcDbEntity
100
AcDbBlockEnd
0
ENDSEC
0
SECTION
2
ENTITIES
0
POINT
5
100
100
AcDbEntity
8
0
100
AcDbPoint
10
-92.354390833536186
20
37.685766756449155
30
0
0
POINT
5
101
100
AcDbEntity
8
0
100
AcDbPoint
10
-92.354390833536172
20
37.685766756449155
30
0
0
POINT
5
102
100
AcDbEntity
8
0
100
AcDbPoint
10
-92.354390833536186
20
16.685766756449159
30
0
0
POINT
5
103
100
AcDbEntity
8
0
100
AcDbPoint
10
-92.354390833536172
20
16.685766756449159
30
0
0
LWPOLYLINE
5
104
100
AcDbEntity
8
0
100
AcDbPolyline
90
10
70
1
43
0.0
10
-48.129043799257346
20
52.600799163278481
10
-38.880541387970609
20
50.791919683683346
10
-36.913822381247918
20
45.996563243528428
10
-45.406142768560272
20
42.513608821819915
10
-53.596650262273101
20
44.494629870410506
10
-65.706202127875457
20
39.528140702359202
42
-0.52959333279354193
10
-70.3543908335362
20
32.685766756449141
10
-92.354390833536186
20
32.685766756449155
42
-0.99999999999999989
10
-92.354390833536186
20
42.685766756449155
10
-72.304390833536175
20
42.685766756449155
0
LINE
5
105
100
AcDbEntity
8
0
100
AcDbLine
10
-53.596650262273101
20
44.494629870410506
30
0
11
-45.406142768560272
21
42.513608821819915
31
0
0
LINE
5
106
100
AcDbEntity
8
0
100
AcDbLine
10
-48.129043721493012
20
52.600799147350031
30
0
11
-38.880541387970609
21
50.791919683683346
31
0
0
ARC
5
107
100
AcDbEntity
8
0
100
AcDbCircle
10
-92.354390833536172
20
37.685766756449155
30
0
40
5
210
0
220
0
230
1
100
AcDbArc
50
90.000000000000171
51
269.99999999999983
0
CIRCLE
5
108
100
AcDbEntity
8
0
100
AcDbCircle
10
-70.354390833536172
20
37.685766756449155
30
0
40
1.6000000000000003
210
0
220
0
230
1
0
LINE
5
109
100
AcDbEntity
8
0
100
AcDbLine
10
-65.706202127875457
20
39.528140702359202
30
0
11
-53.596650262273101
21
44.494629870410506
31
0
0
LINE
5
110
100
AcDbEntity
8
0
100
AcDbLine
10
-38.880541387970609
20
50.791919683683346
30
0
11
-36.913822389367958
21
45.996563240198149
31
0
0
LINE
5
111
100
AcDbEntity
8
0
100
AcDbLine
10
-72.304390833536175
20
42.685766756449155
30
0
11
-92.354390833536186
21
42.685766756449155
31
0
0
CIRCLE
5
112
100
AcDbEntity
8
0
100
AcDbCircle
10
-92.354390833536172
20
37.685766756449155
30
0
40
1.6000000000000003
210
0
220
0
230
1
0
LINE
5
113
100
AcDbEntity
8
0
100
AcDbLine
10
-92.354390833536172
20
37.685766756449155
30
0
11
-70.354390833536172
21
37.685766756449155
31
0
6
DASHED
0
LINE
5
114
100
AcDbEntity
8
0
100
AcDbLine
10
-92.354390833536186
20
37.685766756449155
30
0
11
-70.3543908335362
21
37.685766756449155
31
0
6
DASHED
0
LINE
5
115
100
AcDbEntity
8
0
100
AcDbLine
10
-72.304390833536175
20
42.685766756449155
30
0
11
-48.129043721493012
21
52.600799147350031
31
0
0
LINE
5
116
100
AcDbEntity
8
0
100
AcDbLine
10
-36.913822389367958
20
45.996563240198149
30
0
11
-45.406142768560272
21
42.513608821819915
31
0
0
ARC
5
117
100
AcDbEntity
8
0
100
AcDbCircle
10
-70.354390833536172
20
37.685766756449155
30
0
40
5
210
0
220
0
230
1
100
AcDbArc
50
-90
51
21.621584295311525
0
LINE
5
118
100
AcDbEntity
8
0
100
AcDbLine
10
-72.304390833536175
20
21.685766756449159
30
0
11
-48.129043721493012
21
31.600799147350038
31
0
0
LWPOLYLINE
5
119
100
AcDbEntity
8
0
100
AcDbPolyline
90
10
70
1
43
0.0
10
-65.706202127875457
20
18.528140702359206
10
-53.596650262273101
20
23.494629870410506
10
-45.406142768560272
20
21.513608821819918
10
-36.913822381247918
20
24.996563243528431
10
-38.880541387970609
20
29.79191968368335
10
-48.129043799257346
20
31.600799163278488
10
-72.304390833536175
20
21.685766756449159
10
-92.354390833536186
20
21.685766756449159
42
0.99999999999999989
10
-92.354390833536186
20
11.685766756449141
10
-70.3543908335362
20
11.685766756449141
42
0.52959333279354193
0
LINE
5
120
100
AcDbEntity
8
0
100
AcDbLine
10
-48.129043721493012
20
31.600799147350038
30
0
11
-38.880541387970609
21
29.79191968368335
31
0
0
LINE
5
121
100
AcDbEntity
8
0
100
AcDbLine
10
-65.706202127875457
20
18.528140702359206
30
0
11
-53.596650262273101
21
23.494629870410506
31
0
0
LINE
5
122
100
AcDbEntity
8
0
100
AcDbLine
10
-92.354390833536186
20
16.685766756449159
30
0
11
-70.3543908335362
21
16.685766756449159
31
0
6
DASHED
0
CIRCLE
5
123
100
AcDbEntity
8
0
100
AcDbCircle
10
-92.354390833536172
20
16.685766756449159
30
0
40
1.6000000000000003
210
0
220
0
230
1
0
LINE
5
124
100
AcDbEntity
8
0
100
AcDbLine
10
-53.596650262273101
20
23.494629870410506
30
0
11
-45.406142768560272
21
21.513608821819918
31
0
0
LINE
5
125
100
AcDbEntity
8
0
100
AcDbLine
10
-92.354390833536172
20
16.685766756449159
30
0
11
-70.354390833536172
21
16.685766756449159
31
0
6
DASHED
0
LINE
5
126
100
AcDbEntity
8
0
100
AcDbLine
10
-38.880541387970609
20
29.79191968368335
30
0
11
-36.913822389367958
21
24.996563240198153
31
0
0
CIRCLE
5
127
100
AcDbEntity
8
0
100
AcDbCircle
10
-70.354390833536172
20
16.685766756449159
30
0
40
1.6000000000000003
210
0
220
0
230
1
0
LINE
5
128
100
AcDbEntity
8
0
100
AcDbLine
10
-72.304390833536175
20
21.685766756449159
30
0
11
-92.354390833536186
21
21.685766756449159
31
0
0
ARC
5
129
100
AcDbEntity
8
0
100
AcDbCircle
10
-70.354390833536172
20
16.685766756449159
30
0
40
5
210
0
220
0
230
1
100
AcDbArc
50
-90
51
21.621584295311525
0
ARC
5
130
100
AcDbEntity
8
0
100
AcDbCircle
10
-92.354390833536172
20
16.685766756449159
30
0
40
5
210
0
220
0
230
1
100
AcDbArc
50
90.000000000000171
51
269.99999999999983
0
LINE
5
131
100
AcDbEntity
8
0
100
AcDbLine
10
-36.913822389367958
20
24.996563240198153
30
0
11
-45.406142768560272
21
21.513608821819918
31
0
0
ENDSEC
0
SECTION
2
OBJECTS
0
DICTIONARY
5
C
100
AcDbDictionary
3
ACAD_GROUP
350
D
3
ACAD_MLINESTYLE
350
17
0
DICTIONARY
5
D
100
AcDbDictionary
0
DICTIONARY
5
1A
330
C
100
AcDbDictionary
0
DICTIONARY
5
17
100
AcDbDictionary
0
ENDSEC
0
EOF
